<svg xmlns="http://www.w3.org/2000/svg" viewBox="0 0 1081.63779 843.27711"><defs><style>.cls-1{fill:#ecddf2;}.cls-2{fill:#bbaac1;}.cls-3{fill:#977fa3;}.cls-4,.cls-5{fill:#fff;}.cls-5{font-size:37.96262px;font-family:ArialRoundedMTBold, Arial Rounded MT Bold;}.cls-6{letter-spacing:-0.01318em;}.cls-7{letter-spacing:0.00001em;}.cls-8{letter-spacing:-0.03808em;}.cls-9{letter-spacing:-0.08789em;}.cls-10{fill:#331940;}.cls-11{fill:#bca7c6;}.cls-12{fill:#ffcd69;}.cls-13{fill:#ffb545;}.cls-14{fill:#876991;}.cls-15{fill:#02afb0;}.cls-16{fill:#bfafc3;}.cls-17{fill:#684374;}.cls-18{fill:none;stroke:#45234f;stroke-miterlimit:10;stroke-width:0.25px;}</style></defs><g id="Wizard"><rect class="cls-1" x="0.00009" y="158.80322" width="1081.6376" height="604.32005"/><path class="cls-2" d="M1438.35147,673.87414l0,126.72133s-12.94584-2.84822-36.59539-7.26623c-28.21276-5.28278-71.66974-12.81217-126.56853-20.445-17.45266-2.42515-36.06586-4.85977-55.71-7.238-210.26584-25.44567-539.08368-44.1704-836.99031,28.42589q-12.92893,3.14428-25.77339,6.52361l0-126.72132Z" transform="translate(-356.71375 -119.83642)"/><rect class="cls-3" x="35.61124" y="589.08141" width="37.68471" height="48.95997" rx="18.27601"/><path class="cls-3" d="M1275.19887,758.57753v13.56419c0,.2444-.00564.49817-.01128.74257-17.45266-2.42515-36.06586-4.85977-55.71-7.238v-7.06875c0-9.776,4.749-17.70021,10.608-17.70021H1264.591C1270.44977,740.87733,1275.19886,748.80151,1275.19887,758.57753Z" transform="translate(-356.71375 -119.83642)"/><path class="cls-3" d="M1438.3515,755.24049v45.355s-12.94584-2.84822-36.59539-7.26623v-20.398c0-9.76655,4.749-17.69074,10.6079-17.69074Z" transform="translate(-356.71375 -119.83642)"/><rect class="cls-3" x="1011.45835" y="594.12111" width="15.10265" height="19.91999" rx="6.76596"/><rect class="cls-3" x="976.075" y="616.08111" width="23.29052" height="30.71956" rx="6.76596"/><rect class="cls-3" x="929.47252" y="579.12114" width="33.44159" height="45.23997" rx="6.76596"/><rect class="cls-3" x="144.13458" y="582.96138" width="25.96218" height="30.59998" rx="6.76596"/><path class="cls-3" d="M376.07067,693.43586v11.045c0,3.50618-1.70694,6.35435-3.80826,6.35435H356.71388V687.08146H372.2624C374.36373,687.08145,376.07067,689.92962,376.07067,693.43586Z" transform="translate(-356.71375 -119.83642)"/><path class="cls-3" d="M382.48729,766.079v27.99321q-12.92893,3.14428-25.77339,6.52361l0-40.87122H378.679C380.78031,759.72458,382.48729,762.5728,382.48729,766.079Z" transform="translate(-356.71375 -119.83642)"/><circle class="cls-1" cx="74.59532" cy="158.80336" r="74.59532"/><rect class="cls-1" x="149.9848" y="60.78595" width="59.23746" height="128.93116" rx="28.72848"/><rect class="cls-1" x="209.22226" y="11.80356" width="168.93646" height="256.69566" rx="81.92938"/><rect class="cls-1" x="379.09199" y="73.60202" width="100.5375" height="206.99942" rx="48.75782"/><rect class="cls-1" x="478.59322" width="133.85813" height="238.9876" rx="64.91738"/><rect class="cls-1" x="608.10279" y="35.9368" width="171.76336" height="270.53204" rx="83.30034"/><rect class="cls-1" x="778.67635" y="123.55617" width="59.23746" height="128.93116" rx="28.72848"/><rect class="cls-1" x="836.37302" y="66.46213" width="188.32809" height="184.68194" rx="89.56548"/><rect class="cls-1" x="1022.40014" y="73.74186" width="59.23746" height="128.93116" rx="28.72848"/><polygon class="cls-1" points="91.255 763.123 133.898 818.402 228.661 818.402 242.876 790.763 285.519 790.763 338.033 843.277 429.361 843.277 445.037 812.084 568.229 812.084 601.396 763.123 675.627 763.123 715.112 803.2 816.192 803.2 847.78 843.277 976.075 843.277 1006.071 803.2 1052.019 803.2 1081.638 763.123 91.255 763.123"/><path class="cls-4" d="M636.02113,673.8498s1.76894-11.793,0-14.97712l-1.769-3.18411,10.61371,14.85919V644.01349s16.27436,15.92055,17.33573,26.888l5.66065-6.36823s-3.89169,7.66546-2.12274,9.31648S636.02113,673.8498,636.02113,673.8498Z" transform="translate(-356.71375 -119.83642)"/><path class="cls-4" d="M569.63721,674.81182s1.314-8.76,0-11.12519l-1.314-2.3652,7.884,11.03759v-19.71s12.0888,11.826,12.8772,19.97279l4.2048-4.7304s-2.8908,5.694-1.5768,6.9204S569.63721,674.81182,569.63721,674.81182Z" transform="translate(-356.71375 -119.83642)"/><rect class="cls-4" x="1208.52249" y="419.77614" width="2.03999" height="8.48899" transform="translate(945.19634 1582.56396) rotate(-113.45142)"/><rect class="cls-4" x="1205.20053" y="413.95785" width="2.03999" height="8.48899" transform="translate(1406.71979 1447.00635) rotate(-135)"/><rect class="cls-4" x="1199.72632" y="409.07007" width="2.03999" height="8.48899" transform="translate(1677.2521 1251.79222) rotate(-150)"/><rect class="cls-4" x="1181.01083" y="424.07712" width="2.03999" height="8.48899" transform="translate(293.55285 1447.73192) rotate(-84.89686)"/><rect class="cls-4" x="1182.33235" y="417.5089" width="2.03999" height="8.48899" transform="translate(-81.11514 1170.35341) rotate(-63.34827)"/><rect class="cls-4" x="1185.98962" y="411.14637" width="2.03999" height="8.48899" transform="translate(-268.97136 906.41693) rotate(-48.34827)"/><rect class="cls-4" x="1191.78727" y="406.42449" width="2.03999" height="8.48899" transform="matrix(-0.96708, 0.25447, -0.25447, -0.96708, 2094.13743, 384.44722)"/><text class="cls-5" transform="translate(776.09724 198.78744) rotate(-14.78135)"><tspan class="cls-6">Y<tspan class="cls-7" x="23.22607" y="0">OU </tspan></tspan><tspan x="-22.5957" y="45.55469">SHALL </tspan><tspan x="-55.81299" y="91.11035">N</tspan><tspan class="cls-8" x="-26.97021" y="91.11035">O</tspan><tspan x="1.6499" y="91.11035">T </tspan><tspan class="cls-9" x="34.86719" y="91.11035">P</tspan><tspan x="56.85156" y="91.11035">ASS!</tspan></text><path class="cls-10" d="M857.53587,450.27053s94.49752-32.88985,140.10369,94.18868c0,0-47.15214-36.02149-65.7038,18.08752,0,0-38.00514-36.33034-70.98587,1.93246l-15.202-3.09194-20.09763-1.15948V460.1261Z" transform="translate(-356.71375 -119.83642)"/><path class="cls-10" d="M673.11311,446.44432s-93.85214-20.754-134.4339,98.01489c0,0,46.95889-33.50929,64.35108,20.02,0,0,44.63993-46.1859,64.93081,11.788,0,0,12.4966-17.39218,29.18021-16.03946l29.37346-.773-.19324-119.8128Z" transform="translate(-356.71375 -119.83642)"/><polygon class="cls-3" points="369.731 396.138 366.387 550.284 402.975 484.838 420.238 484.838 457.084 550.284 457.084 469.652 457.084 393.11 369.731 396.138"/><rect class="cls-11" x="483.36553" y="245.40568" width="41.74124" height="55.07524" rx="20.8706"/><path class="cls-11" d="M840.07928,399.44674s-3.92935,43.93134,27.08249,55.66687a9.2993,9.2993,0,0,0,2.22524.51238c5.15573.59634,26.26954,2.85492,37.74879,1.27934,0,0-24.73555-8.76051-25.31529-22.54542V399.44674Z" transform="translate(-356.71375 -119.83642)"/><polygon class="cls-3" points="322.262 235.55 504.301 235.55 504.301 396.138 413.281 396.138 322.262 396.138 322.262 235.55"/><rect class="cls-3" x="410.96252" y="394.84961" width="57.97394" height="71.77496"/><path class="cls-4" d="M776.9521,521.192v51.01706l5.79739-12.75427s4.63792,12.17453,6.37714,12.75427,15.07322,0,15.07322,0l3.6736-9.64319.96432-2.53134,7.53661,12.43219V521.192l-6.37714,10.4353-6.37713-10.4353-6.95687,2.89869L790.2861,521.192l-6.95687,11.015Z" transform="translate(-356.71375 -119.83642)"/><path class="cls-11" d="M752.02331,483.07412s-7.53662-14.20361,9.85557-44.9298c14.13114-24.965,1.50982-41.12753-3.72-46.31079a17.43392,17.43392,0,0,1-4.90618-9.32553c-1.34362-7.59871-.06077-20.87362,15.00328-39.44094,0,0-17.25576,28.717-2.99564,40.81557a13.6949,13.6949,0,0,0,4.54,2.45811c5.21405,1.75124,22.00753,11.22182,7.15171,58.76045,0,0-10.05006,27.34737-1.25672,32.51521S752.02331,483.07412,752.02331,483.07412Z" transform="translate(-356.71375 -119.83642)"/><path class="cls-11" d="M817.53386,483.07412s-7.53662-14.20361,9.85557-44.9298c14.85582-26.24529.145-42.76207-4.46163-47.0213a11.93916,11.93916,0,0,1-3.0584-4.54136c-2.37219-6.26622-4.37-20.9992,13.89716-43.5146,0,0-17.25576,28.717-2.99564,40.81557a13.6949,13.6949,0,0,0,4.54,2.45811c5.21405,1.75124,22.00753,11.22182,7.15171,58.76045,0,0-10.05006,27.34737-1.25672,32.51521S817.53386,483.07412,817.53386,483.07412Z" transform="translate(-356.71375 -119.83642)"/><circle class="cls-4" cx="407.77396" cy="364.54212" r="12.4644"/><circle class="cls-4" cx="472.99464" cy="364.54212" r="12.4644"/><rect class="cls-3" x="290.95647" y="235.55011" width="76.5256" height="57.68407" rx="28.84201"/><rect class="cls-11" x="302.55126" y="245.40568" width="41.74124" height="55.07524" rx="20.8706"/><path class="cls-11" d="M659.265,399.44674s-3.92935,43.93134,27.08249,55.66687a9.29919,9.29919,0,0,0,2.22524.51238c5.15573.59634,26.26954,2.85492,37.74879,1.27934,0,0-24.73555-8.76051-25.31529-22.54542V399.44674Z" transform="translate(-356.71375 -119.83642)"/><polygon class="cls-4" points="439.949 372.755 434.152 383.963 448.066 383.963 439.949 372.755"/><path class="cls-3" d="M725.39243,564.47919s-60.52328,34.269-85.51649,0c0,0,3.60727,42.25656,37.87631,40.19527h46.76664" transform="translate(-356.71375 -119.83642)"/><path class="cls-4" d="M650.18242,561.77374l-47.15213-89.8596s-16.81245-34.751-67.82951-43.46377c0,0-91.40558-1.56266-66.41237-100.24718,0,0,13.91375-37.10332,12.62544-39.67994s2.06129,13.14076,2.06129,13.14076l15.45972-32.98073.25766,22.93191,7.21454-17.77867,12.11011,12.11011.51532-35.815s18.03634,19.84,19.84,32.20774l-.25766-23.18957L549.69426,283.37l.25766-7.98752L564.381,288.78091s11.40154,1.28831,38.93917,22.4488,79.843,37.32877,94.0144-27.34438c0,0,3.86493-45.86382-33.23839-59.26224S635.238,180.77224,635.238,180.77224s-3.60727,29.67944,30.40411,42.04721,43.13049,55.46174,31.80731,80.19728c-9.39476,20.52288-26.69214,37.18794-59.46313,32.44588a66.11094,66.11094,0,0,1-31.47147-13.72218c-21.73867-17.19674-77.14977-52.60855-116.72258-4.5514C469.603,341.70681,473.32459,378.291,498.48848,397.669q.659.50752,1.34121,1.01131a85.23087,85.23087,0,0,0,45.943,16.20134c17.481.98242,48.06375,7.08759,63.69917,36.22633L664.09617,553.915Z" transform="translate(-356.71375 -119.83642)"/><path class="cls-3" d="M591.822,490.27255l40.58176-22.80308,15.26647,22.80308-7.79428,5.02441,17.26335,35.17086-22.03009,10.8218S610.37365,534.71924,591.822,490.27255Z" transform="translate(-356.71375 -119.83642)"/><path class="cls-3" d="M842.17278,557.13583l42.61084-18.55166s23.18958,41.74123,14.68673,64.54431l-23.57606,10.82181-14.9444-35.55735-7.47219,1.93246Z" transform="translate(-356.71375 -119.83642)"/><path class="cls-4" d="M710.71461,671.09931s1.93246-12.88309,0-16.36153l-1.93247-3.47844L720.37693,667.492v-28.987s17.77867,17.39218,18.93815,29.37346l6.18389-6.95687s-4.25142,8.374-2.319,10.17764S710.71461,671.09931,710.71461,671.09931Z" transform="translate(-356.71375 -119.83642)"/><path class="cls-4" d="M797.37181,671.09931s1.93246-12.88309,0-16.36153l-1.93247-3.47844L807.03413,667.492v-28.987s17.77868,17.39218,18.93815,29.37346l6.18389-6.95687s-4.25142,8.374-2.319,10.17764S797.37181,671.09931,797.37181,671.09931Z" transform="translate(-356.71375 -119.83642)"/><path class="cls-10" d="M1249.12037,652.759l-2.78207,14.14858a1.71156,1.71156,0,0,1-1.42178,1.29357c-3.73214.68432-14.75725,2.86795-13.76079,4.61542h22.15639a.67871.67871,0,0,0,.71858-.63008v-.67511a3.20105,3.20105,0,0,1,.248-1.23284c1.22325-2.94114,6.5442-15.80051,6.27911-16.31188C1260.25845,653.38907,1249.12037,652.759,1249.12037,652.759Z" transform="translate(-356.71375 -119.83642)"/><path class="cls-10" d="M1322.05681,652.759l10.74514,14.32885a.80984.80984,0,0,1-.57894,1.27224c-3.9243.7982-15.74591,2.4977-15.01665,3.51136.6587.91558,18.79326.80458,24.33338.91532a.94956.94956,0,0,0,1.01347-1.23827l-8.81938-21.41483Z" transform="translate(-356.71375 -119.83642)"/><path class="cls-12" d="M1291.55727,491.08813l-.02111.05553a19.79087,19.79087,0,0,1-.94989,2.0452c-3.40549,6.32995-8.75649,7.66257-8.75649,7.66257l-1.92438-.19742-10.6-6.222-1.168-.472c-1.06244-.42877-.57344-10.45427-.47493-12.24654.00352-.074.007-.13571.007-.1789.00353-.0617.00705-.09563.00705-.09563S1294.64615,483.04614,1291.55727,491.08813Z" transform="translate(-356.71375 -119.83642)"/><path class="cls-13" d="M1267.66953,481.53461c3.993,1.50537,19.90176,7.52375,23.88774,9.55353l-.02111.05553a19.793,19.793,0,0,1-.94988,2.0452c-4.584-1.08892-19.14185-9.31292-22.92378-11.47534Z" transform="translate(-356.71375 -119.83642)"/><path class="cls-3" d="M1335.70911,653.88374c-12.17957,1.5794-62.57953,7.46206-87.5684.14191a1.80765,1.80765,0,0,1-1.38261-1.98351c1.49166-8.93658,9.63952-55.99165,18.88853-74.13009l-.1794-51.747s8.20063-27.56549,16.25349-24.33575a19.78044,19.78044,0,0,1,8.90425-1.04574,22.84025,22.84025,0,0,1,6.60343,1.65652c8.62633,3.566,18.95892,13.67479,25.75232,39.85831.06332.24369.12312.4874.18645.73109a4.28892,4.28892,0,0,1,.102.56143,20.13534,20.13534,0,0,1-1.48813,9.11858c-1.52686,3.96085-4.51018,8.76384-10.2341,13.58531,0,0,7.42666,48.43088,25.75584,85.0656A1.80614,1.80614,0,0,1,1335.70911,653.88374Z" transform="translate(-356.71375 -119.83642)"/><path class="cls-4" d="M1282.07962,487.92017s-3.31759,6.111-2.77865,6.74112-5.20975-4.825-11.31773-3.04257-11.677,29.506-2.515,34.5466c0,0,5.80857-17.32722,16.64724-23.78554l4.73517-12.7695Z" transform="translate(-356.71375 -119.83642)"/><path class="cls-14" d="M1308.03242,491.60637l-.007.01235c-1.759,3.22359-14.92367,1.018-29.43926-4.93254-14.52964-5.95978-24.908-13.41875-23.17708-16.66393,1.73089-3.2421,14.91313-1.03957,29.44278,4.92021,2.74761,1.12593,5.34747,2.3074,7.74328,3.50429C1302.87491,483.57055,1309.43261,488.97507,1308.03242,491.60637Z" transform="translate(-356.71375 -119.83642)"/><path class="cls-10" d="M1308.03242,491.60637l-.007.01235-18.396-7.78288,2.96573-5.38909C1302.87491,483.57055,1309.43261,488.97507,1308.03242,491.60637Z" transform="translate(-356.71375 -119.83642)"/><path class="cls-15" d="M1270.28466,471.32936Z" transform="translate(-356.71375 -119.83642)"/><path class="cls-10" d="M1296.78864,449.37589l-.78452,30.91246-.12315,4.80608a1.876,1.876,0,0,1-2.431,1.57015c-5.50929-1.39741-19.10314-5.3274-24.55616-11.26867a1.50393,1.50393,0,0,1,.0598-2.11306l3.11-3.18039,21.37231-21.85252C1294.60041,447.05923,1296.82734,447.80574,1296.78864,449.37589Z" transform="translate(-356.71375 -119.83642)"/><path class="cls-16" d="M1296.00412,480.28835l-.12315,4.80608a1.876,1.876,0,0,1-2.431,1.57015c-5.50929-1.39741-19.10314-5.3274-24.55616-11.26867a1.50393,1.50393,0,0,1,.0598-2.11306l3.11-3.18039S1276.5984,481.72278,1296.00412,480.28835Z" transform="translate(-356.71375 -119.83642)"/><path class="cls-17" d="M1281.75613,473.50108Z" transform="translate(-356.71375 -119.83642)"/><path class="cls-14" d="M1283.573,458.33445a6.74592,6.74592,0,0,0,4.351,1.98745s-6.21892-.07753-5.28494-1.03249Z" transform="translate(-356.71375 -119.83642)"/><polygon class="cls-3" points="857.256 359.755 906.966 377.333 906.966 406.329 857.256 381.493 857.256 359.755"/><path class="cls-10" d="M1213.8423,479.55135s-10.47937,9.03115,0,21.73778Z" transform="translate(-356.71375 -119.83642)"/><path class="cls-12" d="M1213.96955,480.747s-8.42571-2.10027-9.22184-3.17666v6.117s9.22184,3.07164,9.22184,3.43919Z" transform="translate(-356.71375 -119.83642)"/><path class="cls-10" d="M1196.24444,434.85615s1.79647-1.26016,2.39529,0,8.3835,59.33258,8.3835,59.33258h-2.515Z" transform="translate(-356.71375 -119.83642)"/><path class="cls-4" d="M1204.55944,431.03848l-8.45862-10.13081a1.04425,1.04425,0,0,0-1.78531.31894l-4.46256,12.53074a1.75984,1.75984,0,0,0,1.98046,2.32043l11.69776-2.18138A1.75984,1.75984,0,0,0,1204.55944,431.03848Z" transform="translate(-356.71375 -119.83642)"/><polygon class="cls-10" points="844.159 310.781 850.925 309.291 842.829 320.151 840.309 320.608 844.159 310.781"/><path class="cls-12" d="M1203.66249,477.97485l.12147,3.30175a1.22282,1.22282,0,0,1-1.3235,1.17458c-1.04993-.0199-2.31671-.52391-2.2638-2.85932.06213-2.7418,1.68539-2.75843,2.68062-2.508A.9879.9879,0,0,1,1203.66249,477.97485Z" transform="translate(-356.71375 -119.83642)"/><path class="cls-10" d="M1290.84325,549.71457l9.35658,26.48964S1286.891,566.20168,1290.84325,549.71457Z" transform="translate(-356.71375 -119.83642)"/><polygon class="cls-10" points="954.864 446.497 943.486 456.368 956.852 457.506 954.864 446.497"/><path class="cls-12" d="M1291.49285,551.55368s-21.82019,14.24622,2.61172,7.39409Z" transform="translate(-356.71375 -119.83642)"/><path class="cls-10" d="M1246.12626,667.98594Z" transform="translate(-356.71375 -119.83642)"/><path class="cls-18" d="M1290.84325,549.71457l10.55423-8.89988s-22.27616-17.11719-22.27616-19.32247" transform="translate(-356.71375 -119.83642)"/><polygon class="cls-10" points="837.479 312.722 830.296 313.632 840.309 320.608 842.829 320.69 837.479 312.722"/><rect class="cls-10" x="1194.74463" y="434.2144" width="7.10638" height="2.17263" transform="translate(-397.17664 14.00738) rotate(-6.28708)"/></g></svg>