<svg width="43" height="54" viewBox="0 0 43 54" fill="none" xmlns="http://www.w3.org/2000/svg">
<path d="M37.5076 53.6088C38.9271 53.6088 40.2884 53.0534 41.2921 52.0649C42.2959 51.0764 42.8598 49.7357 42.8598 48.3378V16.7119L26.8032 0.898926H5.39443C3.97494 0.898926 2.61359 1.45426 1.60986 2.44276C0.606126 3.43126 0.0422363 4.77196 0.0422363 6.16991V48.3378C0.0422363 49.7357 0.606126 51.0764 1.60986 52.0649C2.61359 53.0534 3.97494 53.6088 5.39443 53.6088H37.5076ZM24.1271 6.16991L37.5076 19.3474H24.1271V6.16991ZM8.07052 16.7119H16.0988V21.9829H8.07052V16.7119ZM8.07052 27.2539H34.8315V32.5248H8.07052V27.2539ZM8.07052 37.7958H34.8315V43.0668H8.07052V37.7958Z" fill="#575FCF"/>
</svg>
