<svg xmlns="http://www.w3.org/2000/svg" viewBox="0 0 210 210"><defs><style>.aeaf7932-43d5-4ebb-82b8-f3e4c7fdbcb0,.b73eb846-3de2-46ca-b87a-d05f735278f7{fill:none;}.f2007c01-8198-4454-af55-b2d4b7b72453{fill:#9ca6d8;}.a07d40fe-3056-4d17-8e43-16ca73bf3bbd{fill:#5f6ec0;}.b73eb846-3de2-46ca-b87a-d05f735278f7{stroke:#262626;stroke-miterlimit:10;}</style></defs><g id="ab5985bd-f1b8-45e1-8ce2-1e1d43bf0c80" data-name="Layer 2"><g id="a916e4b8-37da-40ba-bbbe-3965de403724" data-name="Layer 1"><path class="aeaf7932-43d5-4ebb-82b8-f3e4c7fdbcb0" d="M209.91543,105.49961c0,33.64027-.04888,67.28073.0844,100.92047.01181,2.98162-.60166,3.5846-3.58176,3.57989Q104.999,209.83946,3.57968,210C.59959,210.00467-.00469,209.40041,0,206.42028Q.16055,105.00014,0,3.57972C-.00469.5996.59959-.00469,3.57968,0Q104.99876.16055,206.41807,0c2.9801-.00472,3.59337.5983,3.58172,3.57989C209.867,37.55274,209.91543,71.52627,209.91543,105.49961ZM93.81256,192.5134a11.65388,11.65388,0,0,0,22.374.00187c4.09816-1.38245,8.44253-2.41535,10.17032-7.16328,2.94873-2.46269,3.6646-5.7497,3.46141-9.376l.37864.06753c31.66989-9.43366,55.81043-38.81465,57.56729-74.26708,1.335-26.93878-8.35412-49.76332-29.01493-67.43579Q132.10828,11.55287,97.01081,14.93485,62.78,18.26978,40.98905,44.665A80.20668,80.20668,0,0,0,22.11687,94.962c-.51083,21.11578,6.02244,39.92547,19.70227,55.98634,10.20944,11.98645,22.71367,20.82649,38.13418,25.05175.27073,2.10886.1261,4.35487,1.96354,5.94638.78286,4.456,3.74231,6.93677,7.71321,8.49965C90.54536,192.10413,92.41939,191.82233,93.81256,192.5134Z"/><path class="f2007c01-8198-4454-af55-b2d4b7b72453" d="M79.95332,176.00012q.09379-1.03722.18748-2.0749a49.2988,49.2988,0,0,0,8.91545-.41087c13.55862-1.99567,27.1448-3.80405,40.72106-5.67982q.20934,4.10385.41915,8.20834l-.37815-.06722c-3.57883.48256-7.15007,1.03268-10.73779,1.43616-12.40235,1.39478-24.64142,4.12748-37.16366,4.53469C80.07942,180.355,80.22405,178.109,79.95332,176.00012Z"/><path class="a07d40fe-3056-4d17-8e43-16ca73bf3bbd" d="M81.91686,181.9465c12.52224-.40721,24.76131-3.13991,37.16366-4.53469,3.58772-.40348,7.159-.9536,10.73779-1.43616.20322,3.62664-.51265,6.91365-3.46244,9.37493a236.97739,236.97739,0,0,0-36.7258,5.09557C85.65917,188.88327,82.69972,186.40251,81.91686,181.9465Z"/><path class="f2007c01-8198-4454-af55-b2d4b7b72453" d="M89.63007,190.44615a236.97739,236.97739,0,0,1,36.7258-5.09557c-1.72673,4.74934-6.0711,5.78224-10.16827,7.16754a147.588,147.588,0,0,1-22.375-.00472C92.41939,191.82233,90.54536,192.10413,89.63007,190.44615Z"/><path class="a07d40fe-3056-4d17-8e43-16ca73bf3bbd" d="M93.81256,192.5134a147.588,147.588,0,0,0,22.375.00472,11.65509,11.65509,0,0,1-22.375-.00472Z"/><path class="b73eb846-3de2-46ca-b87a-d05f735278f7" d="M80.1326,155.3309c-1.38285-8.33735-6.23989-14.18758-12.52761-19.6484-20.41406-17.72938-21.71714-53.07443-3.393-73.488,10.97975-12.23174,24.6407-18.9819,40.822-18.8421,26.47981.22877,48.01685,17.75982,52.88215,44.015,3.53792,19.09206-2.09393,35.55579-15.953,48.97114-5.63623,5.45579-10.46747,11.1037-12.04648,18.98286q-6.38589-.20018-12.77355-.39855-.02678-17.96219-.05994-35.9241a7.16506,7.16506,0,0,1,1.45316-5.09339c4.05387-4.83106,7.89459-9.84021,11.89487-14.71721,5.09151-6.20738,4.52316-6.98516-1.65876-12.11191-7.25839-6.0195-13.92365-7.64467-21.27209-.72264-1.5316,1.44272-2.92523,1.5437-4.80236.20148-11.74823-8.40038-9.3089-6.68994-20.58488.44972-.98189.6217-1.92926,1.29774-2.89664,1.94257-3.2293,2.15262-3.98163,4.67-1.34308,7.87821,3.47915,4.23027,6.70887,8.67586,10.33915,12.76869,3.33525,3.76023,5.12239,7.62581,4.89495,12.93154-.46257,10.791-.14464,21.61548-.14836,32.42616Q86.54583,155.14146,80.1326,155.3309Z"/><path class="a07d40fe-3056-4d17-8e43-16ca73bf3bbd" d="M129.77731,167.83453c-13.57626,1.87577-27.16244,3.68415-40.72106,5.67982a49.2988,49.2988,0,0,1-8.91545.41087q.09009-3.901.1796-7.80347c4.74-.61078,9.47112-1.30644,14.22231-1.81457,11.79377-1.26136,23.42631-3.83595,35.31419-4.31835Z"/><path class="b73eb846-3de2-46ca-b87a-d05f735278f7" d="M101.11824,154.93646q-4.07931.00769-8.15891.01542c.00342-10.81061-.31451-21.63508.14806-32.42609.22744-5.30573-1.5597-9.17131-4.89495-12.93154-3.63028-4.09283-6.86-8.53842-10.33915-12.76869-2.63855-3.20817-1.88622-5.72559,1.34308-7.87821.96738-.64483,1.91475-1.32087,2.89664-1.94257,11.276-7.13966,8.83665-8.8501,20.58488-.44972,1.87713,1.34222,3.27076,1.24124,4.80236-.20148,7.34844-6.922,14.0137-5.29686,21.27209.72264,6.18192,5.12675,6.75027,5.90453,1.65876,12.11191-4.00028,4.877-7.841,9.88615-11.89487,14.71721a7.16506,7.16506,0,0,0-1.45316,5.09339q.05011,17.96195.05994,35.9241-4.07013.02006-8.14239.0399c.00328-12.63384.10468-25.26893-.05808-37.90062a11.93717,11.93717,0,0,1,2.821-8.20652c2.95715-3.58375,5.9084-7.17567,8.73879-10.8589.96657-1.25781,3.5903-2.35334,1.49883-4.41963-1.71326-1.69263-4.19416-4.106-6.48725-2.04664-7.11834,6.39277-13.683,6.58691-20.81566.02556-2.279-2.0964-4.80984.25959-6.51811,1.9398-1.99041,1.9577.46957,3.20517,1.43716,4.48407A124.38638,124.38638,0,0,0,97.74373,108.044a12.64054,12.64054,0,0,1,3.38479,9.49094C100.99185,130.00068,101.10232,142.46909,101.11824,154.93646Z"/><path class="b73eb846-3de2-46ca-b87a-d05f735278f7" d="M101.11824,154.93646c-.01592-12.46737-.12639-24.93578.01028-37.4015a12.64054,12.64054,0,0,0-3.38479-9.49094,124.38638,124.38638,0,0,1-8.12645-10.06417c-.96759-1.2789-3.42757-2.52637-1.43716-4.48407,1.70827-1.68021,4.23914-4.0362,6.51811-1.9398,7.13271,6.56135,13.69732,6.36721,20.81566-.02556,2.29309-2.05936,4.774.354,6.48725,2.04664,2.09147,2.06629-.53226,3.16182-1.49883,4.41963-2.83039,3.68323-5.78164,7.27515-8.73879,10.8589a11.93717,11.93717,0,0,0-2.821,8.20652c.16276,12.63169.06136,25.26678.05808,37.90061Z"/><path class="f2007c01-8198-4454-af55-b2d4b7b72453" d="M129.8569,159.98883c-11.88788.4824-23.52042,3.057-35.31419,4.31835-4.75119.50813-9.48234,1.20379-14.22231,1.81457q-.09432-5.39628-.18852-10.79216,6.4143-.1875,12.82744-.3777,4.07976-.0078,8.15892-.01543l7.8824.02626,8.14343-.03977q6.38642.19872,12.77249.39843Q129.8864,157.65607,129.8569,159.98883Z"/></g></g></svg>