<svg width="43" height="52" viewBox="0 0 43 52" fill="none" xmlns="http://www.w3.org/2000/svg">
<path d="M39.3036 5.56003H28.0083C27.5384 4.19534 26.6614 3.00749 25.4956 2.15653C24.3298 1.30558 22.9311 0.832407 21.4881 0.800781C20.0594 0.850527 18.6793 1.33189 17.5296 2.18145C16.3798 3.03101 15.5144 4.20893 15.0473 5.56003H3.94237C3.55386 5.50384 3.15785 5.53068 2.78048 5.63877C2.4031 5.74687 2.05294 5.93377 1.7531 6.18713C1.45327 6.44049 1.21057 6.75456 1.04102 7.10861C0.871481 7.46266 0.778948 7.84864 0.769531 8.24108V48.8851C0.771608 49.2392 0.843425 49.5895 0.98088 49.9159C1.11834 50.2424 1.31874 50.5385 1.57064 50.7875C1.82255 51.0364 2.12102 51.2333 2.44903 51.3669C2.77703 51.5005 3.12814 51.5682 3.4823 51.5661H39.3036C39.6578 51.5682 40.0089 51.5005 40.3369 51.3669C40.6649 51.2333 40.9634 51.0364 41.2153 50.7875C41.4672 50.5385 41.6676 50.2424 41.805 49.9159C41.9425 49.5895 42.0143 49.2392 42.0164 48.8851V8.24108C42.0143 7.88691 41.9425 7.53662 41.805 7.21022C41.6676 6.88381 41.4672 6.58767 41.2153 6.33871C40.9634 6.08975 40.6649 5.89284 40.3369 5.75924C40.0089 5.62563 39.6578 5.55794 39.3036 5.56003ZM10.7481 10.3193C10.7481 9.89854 10.9152 9.49503 11.2127 9.19752C11.5103 8.90001 11.9138 8.73287 12.3345 8.73287H17.7918V7.63824C17.7918 7.15595 17.8868 6.67839 18.0713 6.23281C18.2559 5.78724 18.5264 5.38238 18.8675 5.04135C19.2085 4.70032 19.6133 4.4298 20.0589 4.24524C20.5045 4.06068 20.9821 3.96568 21.4643 3.96568C21.9466 3.96568 22.4242 4.06068 22.8698 4.24524C23.3153 4.4298 23.7202 4.70032 24.0612 5.04135C24.4023 5.38238 24.6728 5.78724 24.8573 6.23281C25.0419 6.67839 25.1369 7.15595 25.1369 7.63824V8.73287H30.5942C31.0149 8.73287 31.4184 8.90001 31.7159 9.19752C32.0134 9.49503 32.1806 9.89854 32.1806 10.3193V13.4921H10.7798L10.7481 10.3193ZM32.4979 42.0476H10.288V38.8748H32.4979V42.0476ZM32.4979 35.702H10.288V32.5291H32.4979V35.702ZM32.4979 29.3563H10.288V26.1835H32.4979V29.3563ZM32.4979 23.0106H10.288V19.8378H32.4979V23.0106Z" fill="#575FCF"/>
</svg>
