<svg width="1076" height="741" viewBox="0 0 1076 741" fill="none" xmlns="http://www.w3.org/2000/svg">
<path d="M657.479 109.88L700.067 150.317L742.871 378.27H341.372L657.479 109.88Z" fill="#FFE077"/>
<path d="M700.433 150L657.716 109.435L664.86 102.131C675.384 91.3759 694.343 92.6039 705.275 102.936C716.207 113.288 718.123 131.94 707.599 142.695L700.433 150Z" fill="white" stroke="#FFC03F" stroke-width="6" stroke-miterlimit="10" stroke-linecap="round"/>
<path d="M707.578 142.695L664.839 102.131" stroke="#FFC03F" stroke-width="6" stroke-miterlimit="10" stroke-linecap="round"/>
<path d="M707.621 104.777L712.399 101.178C718.811 96.351 728.022 97.6213 732.821 104.036L850.234 244.657L790.129 376.534" stroke="#3FB1B5" stroke-width="6" stroke-miterlimit="10" stroke-linecap="round"/>
<path d="M848.319 251.834C851.955 251.834 854.904 248.934 854.904 245.356C854.904 241.778 851.955 238.877 848.319 238.877C844.682 238.877 841.733 241.778 841.733 245.356C841.733 248.934 844.682 251.834 848.319 251.834Z" fill="white" stroke="#FFC03F" stroke-width="6" stroke-miterlimit="10" stroke-linecap="round"/>
<path d="M773.429 361.799H805.515C814.747 361.799 822.215 369.166 822.215 378.228V378.693H756.708V378.228C756.73 369.166 764.197 361.799 773.429 361.799Z" fill="white" stroke="#FFCF2D" stroke-width="6" stroke-miterlimit="10" stroke-linecap="round"/>
<path d="M617.99 330.613H414.863C407.223 330.613 401.047 324.537 401.047 317.021V177.247C401.047 169.731 407.223 163.655 414.863 163.655H617.99C625.63 163.655 631.806 169.731 631.806 177.247V317C631.827 324.516 625.63 330.613 617.99 330.613Z" fill="#3A53F8" stroke="#3FB1B5" stroke-width="6" stroke-miterlimit="10" stroke-linecap="round"/>
<path d="M618.119 317.614H416.95C413.959 317.614 411.549 315.222 411.549 312.3V178.581C411.549 175.638 413.981 173.267 416.95 173.267H618.119C621.111 173.267 623.521 175.659 623.521 178.581V312.279C623.542 315.222 621.111 317.614 618.119 317.614Z" fill="#66B0F0" stroke="#66B0F0" stroke-width="6" stroke-miterlimit="10" stroke-linejoin="round"/>
<path d="M424.16 185.758H420.975C419.942 185.758 419.081 184.933 419.081 183.895V180.762C419.081 179.746 419.92 178.899 420.975 178.899H424.16C425.193 178.899 426.054 179.725 426.054 180.762V183.895C426.032 184.933 425.193 185.758 424.16 185.758Z" stroke="#3A53F8" stroke-width="3" stroke-miterlimit="10" stroke-linecap="round"/>
<path d="M438.643 185.758H435.458C434.425 185.758 433.564 184.933 433.564 183.895V180.762C433.564 179.746 434.404 178.899 435.458 178.899H438.643C439.676 178.899 440.537 179.725 440.537 180.762V183.895C440.537 184.933 439.676 185.758 438.643 185.758Z" stroke="#3A53F8" stroke-width="3" stroke-miterlimit="10" stroke-linecap="round"/>
<path d="M453.126 185.758H449.941C448.908 185.758 448.047 184.933 448.047 183.895V180.762C448.047 179.746 448.886 178.899 449.941 178.899H453.126C454.159 178.899 455.019 179.725 455.019 180.762V183.895C455.019 184.933 454.18 185.758 453.126 185.758Z" stroke="#3A53F8" stroke-width="3" stroke-miterlimit="10" stroke-linecap="round"/>
<path d="M559.305 378.27H480.456L495.929 330.613H543.811L559.305 378.27Z" fill="white" stroke="#3FB1B5" stroke-width="6" stroke-miterlimit="10" stroke-linecap="round"/>
<path d="M486.653 359.195L495.928 330.613H543.81L486.653 359.195Z" fill="#3FB1B5"/>
<path d="M606.412 217.113H568.085C564.491 217.113 561.586 214.255 561.586 210.719V186.372C561.586 182.837 564.491 179.979 568.085 179.979H606.412C610.006 179.979 612.911 182.837 612.911 186.372V210.719C612.911 214.255 610.006 217.113 606.412 217.113Z" stroke="#3A53F8" stroke-width="2" stroke-miterlimit="10" stroke-linecap="round"/>
<path d="M572.54 188.659H601.786" stroke="#3A53F8" stroke-width="3" stroke-miterlimit="10" stroke-linecap="round"/>
<path d="M572.54 195.222H601.786" stroke="#3A53F8" stroke-width="3" stroke-miterlimit="10" stroke-linecap="round"/>
<path d="M572.54 201.785H601.786" stroke="#3A53F8" stroke-width="3" stroke-miterlimit="10" stroke-linecap="round"/>
<path d="M572.54 208.348H601.786" stroke="#3A53F8" stroke-width="3" stroke-miterlimit="10" stroke-linecap="round"/>
<path d="M616.999 317.614H464.659L455.729 330.211C445.636 344.438 424.309 344.65 413.937 330.613L359.534 257C361.815 259.795 372.253 256.683 382.195 250.247C392.288 243.705 398.808 235.469 396.764 232.42L434.488 279.717L446.045 259.647C449.208 254.333 454.459 250.522 460.571 249.125L499.888 240.931H533.781L571.14 249.04C577.639 250.501 583.148 254.672 586.269 260.451L616.999 317.614Z" fill="white" stroke="#3FB1B5" stroke-width="6" stroke-miterlimit="10"/>
<path d="M575.186 316.746L564.361 295.723" stroke="#3FB1B5" stroke-width="6" stroke-miterlimit="10" stroke-linecap="round"/>
<path d="M463.799 318.715L474.516 297.904" stroke="#3FB1B5" stroke-width="6" stroke-miterlimit="10" stroke-linecap="round"/>
<path d="M419.812 261.362L444.366 292.251" stroke="#3FB1B5" stroke-width="6" stroke-miterlimit="10" stroke-linecap="round"/>
<path d="M521.063 251.094L530.102 261.912L550.331 245.018" stroke="#3FB1B5" stroke-width="6" stroke-miterlimit="10" stroke-linecap="round"/>
<path d="M514.156 251.305L505.376 262.336L483.146 245.018" stroke="#3FB1B5" stroke-width="6" stroke-miterlimit="10" stroke-linecap="round"/>
<path d="M404.253 241.884C406.297 244.954 399.755 253.295 389.597 259.922C379.612 266.443 369.024 269.576 366.722 266.76" stroke="#3FB1B5" stroke-width="6" stroke-miterlimit="10" stroke-linecap="round"/>
<path d="M397.495 247.24C398.838 247.24 399.927 246.169 399.927 244.848C399.927 243.527 398.838 242.456 397.495 242.456C396.152 242.456 395.063 243.527 395.063 244.848C395.063 246.169 396.152 247.24 397.495 247.24Z" stroke="#3FB1B5" stroke-width="6" stroke-miterlimit="10" stroke-linecap="round"/>
<path d="M517.577 262.272C518.92 262.272 520.009 261.201 520.009 259.88C520.009 258.558 518.92 257.487 517.577 257.487C516.234 257.487 515.146 258.558 515.146 259.88C515.146 261.201 516.234 262.272 517.577 262.272Z" stroke="#3FB1B5" stroke-width="6" stroke-miterlimit="10" stroke-linecap="round"/>
<path d="M517.577 281.538C518.92 281.538 520.009 280.467 520.009 279.146C520.009 277.825 518.92 276.753 517.577 276.753C516.234 276.753 515.146 277.825 515.146 279.146C515.146 280.467 516.234 281.538 517.577 281.538Z" stroke="#3FB1B5" stroke-width="6" stroke-miterlimit="10" stroke-linecap="round"/>
<path d="M454.954 331.227L464.66 317.614V331.227H454.954Z" fill="#3FB1B5"/>
<path d="M381.959 249.612C372.017 256.048 361.579 259.16 359.298 256.365C359.255 256.323 359.234 256.281 359.191 256.217C358.717 255.518 358.76 254.566 359.191 253.401C360.676 249.569 366.809 243.641 374.599 238.602C380.797 234.58 386.908 231.785 391.148 230.917C393.601 230.43 395.43 230.578 396.313 231.51L396.528 231.764C398.551 234.813 392.052 243.07 381.959 249.612Z" fill="#FE5244"/>
<path d="M381.958 249.611C376.299 253.274 370.467 255.878 366.077 256.894L346.429 229.626C343.696 225.815 344.6 220.543 348.495 217.854L366.184 205.617L356.156 188.828C354.693 186.394 355.532 183.239 358.028 181.821C358.846 181.355 359.728 181.143 360.611 181.143C362.311 181.143 363.989 181.969 364.979 183.493L396.334 231.468L396.549 231.806C398.55 234.813 392.051 243.069 381.958 249.611Z" fill="#E57281"/>
<path d="M366.142 205.808L377.095 222.512C378.107 224.079 377.655 226.153 376.062 227.17L373.631 228.736C372.038 229.774 369.886 229.329 368.853 227.762L358.502 212.519" stroke="#9A3B82" stroke-width="6" stroke-miterlimit="10" stroke-linecap="round"/>
<path d="M368.81 227.72C369.865 229.308 369.391 231.446 367.777 232.463L365.561 233.839C363.968 234.834 361.859 234.389 360.826 232.844" stroke="#9A3B82" stroke-width="6" stroke-miterlimit="10" stroke-linecap="round"/>
<path d="M350.646 217.896L360.782 232.716C361.837 234.304 361.385 236.443 359.728 237.459L357.662 238.581C356.113 239.555 354.068 239.153 352.992 237.671L347.117 229.52" stroke="#9A3B82" stroke-width="6" stroke-miterlimit="10" stroke-linecap="round"/>
<path d="M389.017 220.289L383.874 212.434C382.174 209.83 378.623 209.11 376.019 210.846L363.258 219.357C363.258 219.357 366.959 225.899 375.955 220.712L378.967 225.433C372.813 229.265 371.048 237.332 375.051 243.323L389.017 220.289Z" fill="#E57281"/>
<path d="M388.35 220.501L383.207 212.646C381.507 210.042 377.956 209.322 375.352 211.058L363.258 219.357C363.258 219.357 366.959 225.899 375.955 220.712L378.967 225.434C372.813 229.266 371.048 237.332 375.051 243.323" stroke="#9A3B82" stroke-width="6" stroke-miterlimit="10" stroke-linecap="round"/>
<path d="M381.958 249.611C376.298 253.274 370.466 255.878 366.076 256.894L361.191 250.119C363.924 246.605 368.809 242.371 374.598 238.623C380.796 234.601 386.908 231.806 391.147 230.938C393.6 230.451 395.43 230.599 396.312 231.531L396.527 231.785C396.549 231.827 396.57 231.849 396.592 231.891C396.613 231.912 396.613 231.933 396.635 231.976C396.656 232.018 396.678 232.039 396.699 232.081C398.163 235.321 391.728 243.26 381.958 249.611Z" fill="#9A3B82"/>
<path d="M533.76 222.3V240.91C533.76 246.309 526.142 250.67 516.781 250.67C507.398 250.67 499.802 246.309 499.802 240.91V222.3H533.76Z" fill="#E57281"/>
<path d="M504.773 247.812C501.696 246.055 499.78 243.599 499.78 240.91V222.3H533.76V227.466C533.76 232.823 530.446 237.628 525.411 239.64L504.773 247.812Z" fill="#9A3B82"/>
<path d="M543.229 221.199V221.517C543.229 224.735 540.582 227.339 537.311 227.339H533.416C532.103 232.547 527.326 236.422 521.602 236.422H511.961C506.258 236.422 501.459 232.569 500.168 227.339H496.273C493.001 227.339 490.354 224.735 490.354 221.517V221.199C490.354 217.981 493.001 215.377 496.273 215.377H499.802V210.783C499.802 205.871 503.482 201.806 508.281 201.129C509.335 202.865 512.52 207.015 519.019 206.782C522.075 206.676 524.916 206.104 527.261 205.427C530.081 204.622 532.9 206.316 533.61 208.962C533.717 209.555 533.782 210.148 533.782 210.762V215.356H537.311C540.561 215.356 543.229 217.981 543.229 221.199Z" fill="#E57281"/>
<path d="M536.471 215.356H533.76V210.254C533.76 209.809 533.695 209.364 533.588 208.962C532.878 206.316 530.059 204.622 527.239 205.427C524.894 206.104 522.075 206.676 518.997 206.782C512.498 207.014 509.313 202.865 508.259 201.129C503.46 201.806 499.78 205.871 499.78 210.783V215.377H496.401C496.401 215.377 492.528 201.595 495.433 197.699C498.295 193.867 501.738 195.54 501.738 195.54C501.738 195.54 499.672 184.065 511.207 184.276C522.72 184.488 537.698 197.635 538.796 200.049C540.517 203.754 536.471 215.356 536.471 215.356Z" fill="#1D1D1D"/>
<path d="M535.073 222.279C535.073 220.014 536.945 218.193 539.227 218.193" stroke="#9A3B82" stroke-width="5" stroke-miterlimit="10" stroke-linecap="round"/>
<path d="M498.532 222.279C498.532 220.014 496.66 218.193 494.379 218.193" stroke="#9A3B82" stroke-width="5" stroke-miterlimit="10" stroke-linecap="round"/>
<path d="M528.338 210.783C528.338 210.783 525.282 208.581 521.387 210.169" stroke="#9A3B82" stroke-width="5" stroke-miterlimit="10" stroke-linecap="round"/>
<path d="M505.01 210.783C505.01 210.783 508.066 208.581 511.961 210.169" stroke="#9A3B82" stroke-width="5" stroke-miterlimit="10" stroke-linecap="round"/>
<path d="M522.14 226.408C522.14 226.408 520.483 229.922 515.404 228.08" stroke="#9A3B82" stroke-width="5" stroke-miterlimit="10" stroke-linecap="round"/>
<path d="M515.167 224.587C516.48 224.672 518.481 224.587 518.481 224.587" stroke="#9A3B82" stroke-width="5" stroke-miterlimit="10" stroke-linecap="round"/>
<path d="M524.873 219.611C525.467 219.611 525.949 218.815 525.949 217.833C525.949 216.851 525.467 216.055 524.873 216.055C524.279 216.055 523.797 216.851 523.797 217.833C523.797 218.815 524.279 219.611 524.873 219.611Z" fill="#9A3B82"/>
<path d="M509.443 219.611C510.037 219.611 510.519 218.815 510.519 217.833C510.519 216.851 510.037 216.055 509.443 216.055C508.849 216.055 508.367 216.851 508.367 217.833C508.367 218.815 508.849 219.611 509.443 219.611Z" fill="#9A3B82"/>
<path d="M512.003 223.825H505.225C503.912 223.825 502.857 222.787 502.857 221.496V214.827C502.857 213.535 503.912 212.498 505.225 212.498H512.003C513.316 212.498 514.371 213.535 514.371 214.827V221.496C514.392 222.766 513.316 223.825 512.003 223.825Z" stroke="white" stroke-width="5" stroke-miterlimit="10"/>
<path d="M528.595 223.825H521.816C520.504 223.825 519.449 222.787 519.449 221.496V214.827C519.449 213.535 520.504 212.498 521.816 212.498H528.595C529.908 212.498 530.962 213.535 530.962 214.827V221.496C530.962 222.766 529.908 223.825 528.595 223.825Z" stroke="white" stroke-width="5" stroke-miterlimit="10"/>
<path d="M514.393 216.902H519.45" stroke="white" stroke-width="5" stroke-miterlimit="10"/>
<path d="M530.382 309.399H506.861C504.73 309.399 502.987 307.706 502.987 305.588V293.288C502.987 291.192 504.709 289.477 506.861 289.477H530.382C532.513 289.477 534.256 291.171 534.256 293.288V305.588C534.256 307.684 532.534 309.399 530.382 309.399Z" stroke="#66B0F0" stroke-width="6" stroke-miterlimit="10" stroke-linejoin="round"/>
<path d="M519.213 304.445H511.251C509.981 304.445 508.948 303.429 508.948 302.18V296.697C508.948 295.447 509.981 294.431 511.251 294.431H519.213C520.483 294.431 521.516 295.447 521.516 296.697V302.18C521.516 303.429 520.483 304.445 519.213 304.445Z" fill="#66B0F0"/>
<path d="M526.961 304.298L524.508 302.689C523.841 302.244 523.432 301.482 523.432 300.657V298.243C523.432 297.417 523.841 296.655 524.508 296.211L526.961 294.602C527.542 294.22 528.295 294.644 528.295 295.364V303.557C528.317 304.256 527.542 304.679 526.961 304.298Z" fill="#66B0F0"/>
<path d="M844.961 378.693H273.67" stroke="#3FB1B5" stroke-width="6" stroke-miterlimit="10" stroke-linecap="round"/>
<path d="M457.601 382.398V643.781H442.602V594.028C442.602 589.391 438.771 585.623 434.059 585.623H326.695C321.982 585.623 318.152 589.391 318.152 594.028V643.781H303.152V382.398H457.601Z" fill="white" stroke="#3FB1B5" stroke-width="6" stroke-miterlimit="10" stroke-linecap="round"/>
<path d="M458.053 382.398V451.756L303.152 577.239L303.174 382.398H458.053Z" fill="#D0F0E4"/>
<path d="M442.602 402.3V449.702C442.602 454.106 438.986 457.663 434.51 457.663H326.264C321.788 457.663 318.173 454.106 318.173 449.702V402.3C318.173 397.896 321.788 394.339 326.264 394.339H434.51C438.986 394.339 442.602 397.896 442.602 402.3Z" stroke="#3FB1B5" stroke-width="6" stroke-miterlimit="10" stroke-linecap="round"/>
<path d="M407.912 493.57H354.629L352.412 478.559H405.717L407.912 493.57Z" fill="#FFCF2D"/>
<path d="M436.339 469.9C429.689 469.9 424.309 475.193 424.309 481.735V493.57H378.967V481.735C378.967 475.193 384.347 469.9 390.996 469.9H436.339Z" fill="white" stroke="#3FB1B5" stroke-width="6" stroke-miterlimit="10" stroke-linecap="round"/>
<path d="M447.637 478.559H402.295C400.896 473.563 396.226 469.9 390.695 469.9H436.038C441.569 469.9 446.217 473.563 447.637 478.559Z" fill="white" stroke="#3FB1B5" stroke-width="6" stroke-miterlimit="10" stroke-linecap="round"/>
<path d="M442.602 501.53V548.933C442.602 553.337 438.986 556.893 434.51 556.893H326.264C321.788 556.893 318.173 553.337 318.173 548.933V501.53C318.173 497.126 321.788 493.57 326.264 493.57H434.51C438.986 493.57 442.602 497.126 442.602 501.53Z" stroke="#3FB1B5" stroke-width="6" stroke-miterlimit="10" stroke-linecap="round"/>
<path d="M358.222 425.059C358.222 421.29 361.321 418.22 365.173 418.22H395.624C399.454 418.22 402.574 421.269 402.574 425.059" stroke="#3FB1B5" stroke-width="6" stroke-miterlimit="10" stroke-linecap="round"/>
<path d="M358.222 524.289C358.222 520.521 361.321 517.451 365.173 517.451H395.624C399.454 517.451 402.574 520.5 402.574 524.289" stroke="#3FB1B5" stroke-width="6" stroke-miterlimit="10" stroke-linecap="round"/>
<path d="M822.215 382.398H806.226V644.352H822.215V382.398Z" fill="white" stroke="#3FB1B5" stroke-width="6" stroke-miterlimit="10" stroke-linecap="round"/>
<path d="M550.481 644.352H884.17" stroke="#3FB1B5" stroke-width="6" stroke-miterlimit="10" stroke-linecap="round"/>
<path d="M348.56 342.765H338.897C338.897 342.765 325.103 286.217 312.987 284.375C300.871 282.533 300.247 304.297 300.247 304.297C300.247 304.297 300.462 271.206 330.741 275.737C361.041 280.267 348.56 342.765 348.56 342.765Z" fill="white" stroke="#3FB1B5" stroke-width="6" stroke-miterlimit="10" stroke-linecap="round"/>
<path d="M315.461 277.176C315.461 277.176 343.071 267.141 344.319 341.919" stroke="#3FB1B5" stroke-width="6" stroke-miterlimit="10" stroke-linecap="round"/>
<path d="M374.878 341.918H329.492V378.27H374.878V341.918Z" fill="#FE5244"/>
<path d="M384.432 360.105C381.549 361.333 378.106 361.185 374.899 359.808C372.532 358.792 370.294 357.12 368.486 354.833C365.99 351.657 364.311 347.317 364.311 341.919C364.311 328.835 353.723 320.62 349.376 337.938C349.075 339.145 348.795 340.458 348.559 341.919V341.876V341.792C348.559 341.749 348.559 341.686 348.58 341.622V341.538C348.666 340.458 348.989 337.261 349.979 333.408C350.711 330.55 351.808 327.374 353.444 324.431C354.261 322.97 355.208 321.573 356.327 320.324C359.211 317.063 363.171 314.777 368.572 314.777C378.514 314.777 385.788 326.294 388.564 337.769C390.996 347.741 390.006 357.713 384.432 360.105Z" fill="white" stroke="#3FB1B5" stroke-width="6" stroke-miterlimit="10" stroke-linecap="round"/>
<path d="M356.35 320.324C356.35 320.324 376.277 306.372 382.131 360.507" stroke="#3FB1B5" stroke-width="6" stroke-miterlimit="10" stroke-linecap="round"/>
<path d="M299.601 304.297C299.601 307.79 299.192 321.149 312.147 321.763C325.102 322.377 326.393 303.132 326.393 303.132C326.393 303.132 320.024 286.111 312.986 284.375C301.086 281.432 299.601 304.297 299.601 304.297Z" fill="#3FB1B5"/>
<path d="M364.311 341.918H348.559C352.195 319.498 364.311 327.924 364.311 341.918Z" fill="#3FB1B5"/>
<path opacity="0.4" d="M631.828 177.247V317C631.828 324.516 625.63 330.592 618.012 330.592H455.428C445.228 344.417 424.203 344.48 413.916 330.592L413.895 330.571C409.806 330.296 406.19 328.242 403.866 325.214L407.611 322.039L503.16 240.91L594.146 163.655H618.012C625.63 163.655 631.828 169.753 631.828 177.247Z" fill="white"/>
<path opacity="0.4" d="M384.434 360.74C381.571 362.01 378.107 361.82 374.9 360.444V378.27H341.394L368.509 355.257L374.922 349.816L379.807 345.666L389.254 337.769C392.009 349.329 390.481 358.009 384.434 360.74Z" fill="white"/>
<path d="M219.871 168.168C219.613 168.168 219.354 167.998 219.268 167.744C219.161 167.406 219.333 167.046 219.656 166.94L221.679 166.241C222.023 166.135 222.389 166.305 222.496 166.622C222.604 166.961 222.432 167.321 222.109 167.427L220.086 168.125C220 168.147 219.935 168.168 219.871 168.168ZM224.95 166.432C224.691 166.432 224.433 166.262 224.347 166.008C224.239 165.669 224.412 165.31 224.734 165.204L226.757 164.505C227.102 164.399 227.467 164.569 227.575 164.886C227.683 165.225 227.511 165.585 227.188 165.691L225.165 166.389C225.1 166.41 225.014 166.432 224.95 166.432ZM230.028 164.674C229.77 164.674 229.512 164.505 229.426 164.251C229.318 163.912 229.49 163.552 229.813 163.446L231.836 162.748C232.18 162.642 232.546 162.811 232.654 163.129C232.761 163.468 232.589 163.828 232.266 163.933L230.244 164.632C230.179 164.674 230.093 164.674 230.028 164.674ZM235.107 162.938C234.849 162.938 234.591 162.769 234.505 162.515C234.397 162.176 234.569 161.816 234.892 161.71L236.915 161.012C237.259 160.906 237.625 161.075 237.733 161.393C237.84 161.732 237.668 162.091 237.345 162.197L235.322 162.896C235.258 162.938 235.193 162.938 235.107 162.938ZM240.186 161.202C239.928 161.202 239.669 161.033 239.583 160.779C239.476 160.44 239.648 160.08 239.971 159.974L241.993 159.276C242.338 159.17 242.704 159.339 242.811 159.657C242.919 159.996 242.747 160.355 242.424 160.461L240.401 161.16C240.336 161.202 240.272 161.202 240.186 161.202ZM245.286 159.466C245.028 159.466 244.77 159.297 244.683 159.043C244.576 158.704 244.748 158.344 245.071 158.238L247.094 157.54C247.438 157.434 247.804 157.603 247.911 157.921C248.019 158.259 247.847 158.619 247.524 158.725L245.501 159.424C245.415 159.466 245.351 159.466 245.286 159.466ZM250.365 157.73C250.107 157.73 249.848 157.561 249.762 157.307C249.655 156.968 249.827 156.608 250.15 156.502L252.172 155.804C252.517 155.698 252.883 155.867 252.99 156.185C253.098 156.523 252.926 156.883 252.603 156.989L250.58 157.688C250.494 157.709 250.429 157.73 250.365 157.73ZM255.443 155.994C255.185 155.994 254.927 155.825 254.841 155.571C254.733 155.232 254.905 154.872 255.228 154.766L257.251 154.068C257.595 153.962 257.961 154.131 258.069 154.449C258.177 154.787 258.004 155.147 257.682 155.253L255.659 155.952C255.573 155.973 255.508 155.994 255.443 155.994ZM260.522 154.258C260.264 154.258 260.006 154.089 259.92 153.835C259.812 153.496 259.984 153.136 260.307 153.03L262.33 152.331C262.674 152.226 263.04 152.395 263.148 152.713C263.255 153.051 263.083 153.411 262.76 153.517L260.737 154.216C260.673 154.237 260.587 154.258 260.522 154.258ZM265.601 152.522C265.343 152.522 265.084 152.353 264.998 152.099C264.891 151.76 265.063 151.4 265.386 151.294L267.409 150.595C267.753 150.49 268.119 150.659 268.226 150.976C268.334 151.315 268.162 151.675 267.839 151.781L265.816 152.48C265.752 152.501 265.665 152.522 265.601 152.522ZM270.68 150.786C270.421 150.786 270.163 150.617 270.077 150.363C269.969 150.024 270.142 149.664 270.464 149.558L272.487 148.859C272.832 148.753 273.197 148.923 273.305 149.24C273.413 149.579 273.241 149.939 272.918 150.045L270.895 150.744C270.83 150.765 270.744 150.786 270.68 150.786ZM275.758 149.029C275.5 149.029 275.242 148.859 275.156 148.605C275.048 148.267 275.22 147.907 275.543 147.801L277.566 147.102C277.91 146.996 278.276 147.166 278.384 147.483C278.491 147.822 278.319 148.182 277.996 148.288L275.974 148.986C275.909 149.029 275.844 149.029 275.758 149.029ZM280.837 147.293C280.579 147.293 280.321 147.123 280.235 146.869C280.127 146.531 280.299 146.171 280.622 146.065L282.645 145.366C282.989 145.26 283.355 145.43 283.463 145.747C283.57 146.086 283.398 146.446 283.075 146.552L281.052 147.25C280.988 147.293 280.923 147.293 280.837 147.293ZM285.937 145.557C285.679 145.557 285.421 145.387 285.335 145.133C285.227 144.794 285.399 144.435 285.722 144.329L287.745 143.63C288.089 143.524 288.455 143.694 288.563 144.011C288.67 144.35 288.498 144.71 288.175 144.816L286.153 145.514C286.066 145.557 286.002 145.557 285.937 145.557ZM291.016 143.821C290.758 143.821 290.5 143.651 290.413 143.397C290.306 143.058 290.478 142.698 290.801 142.593L292.824 141.894C293.168 141.788 293.534 141.957 293.641 142.275C293.749 142.614 293.577 142.974 293.254 143.08L291.231 143.778C291.145 143.821 291.081 143.821 291.016 143.821ZM296.095 142.085C295.837 142.085 295.578 141.915 295.492 141.661C295.385 141.322 295.557 140.962 295.88 140.857L297.902 140.158C298.247 140.052 298.613 140.221 298.72 140.539C298.828 140.878 298.656 141.238 298.333 141.344L296.31 142.042C296.224 142.085 296.159 142.085 296.095 142.085ZM301.173 140.348C300.915 140.348 300.657 140.179 300.571 139.925C300.463 139.586 300.635 139.226 300.958 139.121L302.981 138.422C303.325 138.316 303.691 138.485 303.799 138.803C303.907 139.142 303.734 139.502 303.412 139.607L301.389 140.306C301.324 140.327 301.238 140.348 301.173 140.348ZM306.252 138.612C305.994 138.612 305.736 138.443 305.65 138.189C305.542 137.85 305.714 137.49 306.037 137.384L308.06 136.686C308.404 136.58 308.77 136.749 308.878 137.067C308.985 137.406 308.813 137.766 308.49 137.871L306.467 138.57C306.403 138.591 306.317 138.612 306.252 138.612Z" fill="#6B7EF9"/>
<path d="M242.769 168.168C242.404 168.168 242.124 167.893 242.124 167.533C242.124 161.795 240.316 157.624 236.722 155.169C234.032 153.327 231.299 153.157 231.278 153.157C230.912 153.136 230.654 152.84 230.675 152.48C230.697 152.12 230.998 151.866 231.342 151.887C231.471 151.887 234.42 152.056 237.411 154.089C242.382 157.476 243.415 163.277 243.415 167.533C243.415 167.871 243.135 168.168 242.769 168.168Z" fill="#6B7EF9"/>
<path d="M345.592 168.168H219.872C219.635 168.168 219.398 168.041 219.291 167.808C219.183 167.596 219.205 167.342 219.355 167.151L270.444 100.144C270.552 99.9956 270.724 99.9109 270.896 99.8898C271.068 99.8686 271.262 99.9321 271.391 100.059L346.044 167.067C346.237 167.236 346.302 167.511 346.216 167.765C346.108 167.998 345.872 168.168 345.592 168.168ZM221.163 166.897H343.935L271.046 101.456L221.163 166.897Z" fill="#3A53F8"/>
<path d="M208.574 172.571C205.496 172.571 203 170.115 203 167.088C203 164.06 205.496 161.604 208.574 161.604C211.651 161.604 214.147 164.06 214.147 167.088C214.147 170.115 211.651 172.571 208.574 172.571ZM208.574 162.854C206.206 162.854 204.291 164.738 204.291 167.067C204.291 169.396 206.206 171.28 208.574 171.28C210.941 171.28 212.856 169.396 212.856 167.067C212.856 164.738 210.941 162.854 208.574 162.854Z" fill="#3A53F8"/>
<path d="M214.148 167.088H212.856V171.936H214.148V167.088Z" fill="#3A53F8"/>
<path d="M274.769 95.9732C271.692 95.9732 269.195 93.5173 269.195 90.4898C269.195 87.4622 271.692 85.0063 274.769 85.0063C277.846 85.0063 280.343 87.4622 280.343 90.4898C280.343 93.4961 277.846 95.9732 274.769 95.9732ZM274.769 86.2555C272.402 86.2555 270.487 88.1397 270.487 90.4686C270.487 92.7975 272.402 94.7029 274.769 94.7029C277.136 94.7029 279.052 92.8186 279.052 90.4898C279.052 88.1609 277.136 86.2555 274.769 86.2555Z" fill="#6265F4"/>
<path d="M270.444 82H269.152V95.3168H270.444V82Z" fill="#6265F4"/>
<path d="M355.641 172.444C352.564 172.444 350.067 169.988 350.067 166.961C350.067 163.933 352.564 161.478 355.641 161.478V162.748C353.274 162.748 351.359 164.632 351.359 166.961C351.359 169.29 353.274 171.174 355.641 171.174V172.444Z" fill="#6265F4"/>
<path d="M669.767 454.805V572.645H642.092L624.468 524.226L599.225 454.805H669.767Z" fill="#F7C3A4"/>
<path d="M599.225 454.805H669.767V492.638L607.617 477.86L599.225 454.805Z" fill="#73325A"/>
<path d="M669.767 524.226V572.645H642.093L624.468 524.226C624.468 524.226 638.736 531.975 669.767 524.226Z" stroke="white" stroke-width="6" stroke-miterlimit="10" stroke-linecap="round"/>
<path d="M638.865 535.595C640.6 535.595 642.007 534.211 642.007 532.504C642.007 530.797 640.6 529.413 638.865 529.413C637.129 529.413 635.723 530.797 635.723 532.504C635.723 534.211 637.129 535.595 638.865 535.595Z" stroke="white" stroke-width="6" stroke-miterlimit="10" stroke-linecap="round"/>
<path d="M653.843 545.567C655.578 545.567 656.985 544.183 656.985 542.476C656.985 540.768 655.578 539.385 653.843 539.385C652.108 539.385 650.701 540.768 650.701 542.476C650.701 544.183 652.108 545.567 653.843 545.567Z" stroke="white" stroke-width="6" stroke-miterlimit="10" stroke-linecap="round"/>
<path d="M664.99 534.494C666.725 534.494 668.132 533.11 668.132 531.403C668.132 529.696 666.725 528.312 664.99 528.312C663.254 528.312 661.848 529.696 661.848 531.403C661.848 533.11 663.254 534.494 664.99 534.494Z" stroke="white" stroke-width="6" stroke-miterlimit="10" stroke-linecap="round"/>
<path d="M660.578 557.169C662.314 557.169 663.72 555.785 663.72 554.077C663.72 552.37 662.314 550.986 660.578 550.986C658.843 550.986 657.437 552.37 657.437 554.077C657.437 555.785 658.843 557.169 660.578 557.169Z" stroke="white" stroke-width="6" stroke-miterlimit="10" stroke-linecap="round"/>
<path d="M642.006 551.537C643.742 551.537 645.148 550.153 645.148 548.446C645.148 546.739 643.742 545.355 642.006 545.355C640.271 545.355 638.864 546.739 638.864 548.446C638.864 550.153 640.271 551.537 642.006 551.537Z" stroke="white" stroke-width="6" stroke-miterlimit="10" stroke-linecap="round"/>
<path d="M647.128 568.474C648.863 568.474 650.27 567.09 650.27 565.383C650.27 563.676 648.863 562.292 647.128 562.292C645.393 562.292 643.986 563.676 643.986 565.383C643.986 567.09 645.393 568.474 647.128 568.474Z" stroke="white" stroke-width="6" stroke-miterlimit="10" stroke-linecap="round"/>
<path d="M682.851 594.621L663.87 633.386C661.18 639.631 654.961 643.696 648.053 643.696H623.843C617.645 643.696 613.88 637.514 616.247 631.883L640.586 574.127C641.942 570.613 644.33 567.691 647.322 565.637C650.334 563.584 653.95 562.419 657.759 562.419C663.053 562.419 668.304 565.955 671.79 569.872L680.226 578.827C684.121 583.188 685.132 589.307 682.851 594.621Z" fill="#3A53F8"/>
<path d="M682.851 594.621L663.87 633.386C661.18 639.631 654.961 643.696 648.053 643.696H622.315C619.926 643.696 618.571 642.236 617.774 640.224H623.499C630.407 640.224 636.626 636.159 639.316 629.914L661.202 585.009C663.246 580.817 667.572 578.128 672.306 578.128C678.482 578.128 683.174 582.574 684.035 588.206C684.121 590.366 683.733 592.546 682.851 594.621Z" fill="white" stroke="#66B0F0" stroke-width="6" stroke-miterlimit="10" stroke-linejoin="round"/>
<path d="M678.482 576.964C676.201 575.736 673.446 574.847 671.036 574.847C666.409 574.847 662.127 577.493 660.125 581.601L637.465 628.093C634.581 634.804 627.91 639.145 620.485 639.145H616.31C616.095 638.742 615.945 638.319 615.794 637.874H620.485C627.393 637.874 633.591 633.831 636.281 627.585L636.303 627.564L658.985 581.05C661.201 576.498 665.936 573.577 671.057 573.577C672.693 573.577 674.651 574.106 676.33 574.678L678.482 576.964Z" fill="white"/>
<path d="M599.224 454.805L593.823 524.226L591.413 555.327C591.413 555.327 575.681 572.56 557.777 561.932L549.491 524.247L530.532 438.016C525.41 414.706 541.594 392.031 565.631 388.877L599.224 454.805Z" fill="#F7C3A4"/>
<path d="M593.822 524.226L591.412 556.174C591.412 556.174 575.681 573.407 557.776 562.779L549.491 524.247C570.301 530.387 593.822 524.226 593.822 524.226Z" stroke="white" stroke-width="6" stroke-miterlimit="10" stroke-linecap="round"/>
<path d="M569.096 543.428C570.831 543.428 572.238 542.044 572.238 540.337C572.238 538.63 570.831 537.246 569.096 537.246C567.361 537.246 565.954 538.63 565.954 540.337C565.954 542.044 567.361 543.428 569.096 543.428Z" stroke="white" stroke-width="6" stroke-miterlimit="10" stroke-linecap="round"/>
<path d="M589.067 538.686C590.802 538.686 592.209 537.302 592.209 535.595C592.209 533.888 590.802 532.504 589.067 532.504C587.332 532.504 585.925 533.888 585.925 535.595C585.925 537.302 587.332 538.686 589.067 538.686Z" stroke="white" stroke-width="6" stroke-miterlimit="10" stroke-linecap="round"/>
<path d="M557.044 534.494C558.779 534.494 560.186 533.11 560.186 531.403C560.186 529.696 558.779 528.312 557.044 528.312C555.309 528.312 553.902 529.696 553.902 531.403C553.902 533.11 555.309 534.494 557.044 534.494Z" stroke="white" stroke-width="6" stroke-miterlimit="10" stroke-linecap="round"/>
<path d="M565.954 560.26C567.689 560.26 569.096 558.876 569.096 557.169C569.096 555.462 567.689 554.078 565.954 554.078C564.219 554.078 562.812 555.462 562.812 557.169C562.812 558.876 564.219 560.26 565.954 560.26Z" stroke="white" stroke-width="6" stroke-miterlimit="10" stroke-linecap="round"/>
<path d="M580.609 554.078C582.344 554.078 583.75 552.694 583.75 550.987C583.75 549.279 582.344 547.896 580.609 547.896C578.873 547.896 577.467 549.279 577.467 550.987C577.467 552.694 578.873 554.078 580.609 554.078Z" stroke="white" stroke-width="6" stroke-miterlimit="10" stroke-linecap="round"/>
<path d="M612.157 562.737L591.412 644.352H584.87C584.569 644.352 584.289 644.331 583.988 644.31C579.038 643.866 574.863 639.758 573.809 634.91L557.755 561.89C575.66 572.539 591.412 555.305 591.412 555.305L612.157 562.737Z" fill="#3A53F8"/>
<path d="M613.212 604.614C617.58 581.918 618.785 564.579 611.253 563.181C603.721 561.784 590.315 576.837 585.946 599.533C581.577 622.228 583.859 642.299 591.391 643.696C598.923 645.115 608.843 627.331 613.212 604.614Z" fill="white" stroke="#66B0F0" stroke-width="6" stroke-miterlimit="10" stroke-linejoin="round"/>
<path d="M582.933 599.173C580.674 610.944 580.007 622.313 581.083 631.205C581.857 637.599 583.493 642.151 585.731 644.352H584.87C584.569 644.352 584.289 644.331 583.988 644.31C581.965 641.685 580.523 637.281 579.791 631.353C578.694 622.355 579.361 610.838 581.664 598.94C583.837 587.677 588.227 577.112 594.059 569.173C597.545 564.43 601.204 561.106 604.539 559.603L606.476 560.238C598.794 562.483 587.13 577.387 582.933 599.173Z" fill="white"/>
<path d="M565.63 388.856L663.804 378.905L761.935 405.984L761.096 418.813C759.762 439.053 742.029 454.805 721.413 454.805H599.244L565.63 388.856Z" fill="#3A53F8"/>
<path d="M756.341 405.052C756.341 423.429 737.705 445.913 717.089 445.913H594.92" stroke="white" stroke-width="6" stroke-miterlimit="10" stroke-linecap="round" stroke-linejoin="round"/>
<path d="M744.7 401.389C741.644 417.797 725.332 435.327 707.47 435.327H589.971" stroke="white" stroke-width="6" stroke-miterlimit="10" stroke-linecap="round" stroke-linejoin="round"/>
<path d="M731.464 397.494C726.3 411.425 712.29 424.53 697.118 424.53H583.729" stroke="white" stroke-width="6" stroke-miterlimit="10" stroke-linecap="round" stroke-linejoin="round"/>
<path d="M721.286 394.763C714.507 404.904 703.381 412.885 691.524 412.885H578.135" stroke="white" stroke-width="6" stroke-miterlimit="10" stroke-linecap="round" stroke-linejoin="round"/>
<path d="M709.923 391.629C703.403 398.087 694.967 402.3 686.144 402.3H572.755" stroke="white" stroke-width="6" stroke-miterlimit="10" stroke-linecap="round" stroke-linejoin="round"/>
<path d="M695.139 387.416C690.534 389.978 685.498 391.502 680.333 391.502H566.944" stroke="white" stroke-width="6" stroke-miterlimit="10" stroke-linecap="round" stroke-linejoin="round"/>
<path d="M599.009 454.805L565.416 388.856" stroke="white" stroke-width="6" stroke-miterlimit="10" stroke-linecap="round" stroke-linejoin="round"/>
<path d="M767.317 317.614C758.064 320.197 748.961 319.435 747.992 316.661C747.089 314.015 751.177 309.484 759.463 306.478C759.872 306.33 760.302 306.181 760.732 306.033C763.229 305.207 765.725 304.678 768.071 304.403C775.022 303.535 780.681 304.763 781.392 306.838C782.36 309.611 777.109 314.883 767.317 317.614Z" fill="#3A53F8" stroke="#3A53F8" stroke-width="6" stroke-miterlimit="10" stroke-linejoin="round"/>
<path d="M761.464 379.35H757.913L748.595 317.466V317.423L748.358 315.878C748.81 313.062 753.286 309.082 761.184 306.499C765.122 305.207 769.039 304.636 772.375 304.572L775.775 313.74L776.097 314.608L786.857 343.634C793.313 360.973 780.251 379.35 761.464 379.35Z" fill="#F7C3A4"/>
<path d="M775.99 314.396C773.73 315.793 770.804 317.085 767.317 318.058C759.312 320.281 751.199 319.371 748.595 317.466V317.423L748.358 315.878C748.81 313.062 753.286 309.082 761.184 306.499C765.122 305.207 769.039 304.636 772.375 304.572L775.99 314.396Z" fill="#73325A"/>
<path d="M646.202 328.433L634.904 356.082C629.331 369.738 615.859 378.694 600.881 378.694H449.015V365.017C449.015 361.714 451.081 358.75 454.222 357.586L469.824 351.763C471.245 351.234 472.73 350.959 474.236 350.959H491.947L592.187 341.008L609.489 302.032L646.202 328.433Z" fill="#F7C3A4"/>
<path d="M465.37 360.168L453.598 364.551C451.231 365.44 449.66 367.663 449.66 370.161" stroke="#73325A" stroke-width="6" stroke-miterlimit="10" stroke-linecap="round"/>
<path d="M465.37 367.155L453.598 371.538C451.231 372.427 449.66 374.65 449.66 377.148" stroke="#73325A" stroke-width="6" stroke-miterlimit="10" stroke-linecap="round"/>
<path d="M465.37 373.888L453.599 378.059" stroke="#73325A" stroke-width="6" stroke-miterlimit="10" stroke-linecap="round"/>
<path d="M464.144 354.113C464.144 354.113 475.162 326.442 478.691 326.908C482.22 327.374 468.921 352.335 468.921 352.335L464.144 354.113Z" fill="#FE5244"/>
<path d="M609.49 302.054L606.95 307.749L639.467 344.905L646.203 328.433L609.49 302.054Z" fill="#73325A"/>
<path d="M748.595 317.487L761.937 405.983L663.827 378.905L646.202 328.411L600.709 295.701L616.677 276.986C630.923 260.282 651.948 250.627 674.114 250.627H705.641C733.057 250.627 758.3 265.363 771.449 289.032L781.671 306.435C781.671 306.435 778.593 301.989 762.002 306.456C747.389 310.416 748.595 317.487 748.595 317.487Z" fill="#3A53F8"/>
<path d="M646.202 328.009L651.302 306.245" stroke="white" stroke-width="6" stroke-miterlimit="10" stroke-linecap="round" stroke-linejoin="round"/>
<path d="M759.462 385.32L742.87 283.845" stroke="white" stroke-width="6" stroke-miterlimit="10" stroke-linecap="round" stroke-linejoin="round"/>
<path d="M663.806 378.503L761.721 405.983" stroke="white" stroke-width="6" stroke-miterlimit="10" stroke-linecap="round" stroke-linejoin="round"/>
<path d="M669.1 236.485V250.712L694.622 250.5V225.391L669.1 236.485Z" fill="#A0505A"/>
<path d="M696.688 221.008V221.39C696.688 225.2 693.762 228.291 689.888 228.291H688.382C687.413 232.06 678.805 236.464 672.694 236.464H665.571C657.78 236.464 651.819 229.583 653.089 222.004L653.433 219.95L651.324 218.785C650.119 218.108 649.775 216.562 650.614 215.462L655.176 209.534L656.166 203.69C656.963 198.884 660.169 194.968 664.43 193.041C666.109 211.651 682.808 213.853 687.22 214.107H689.673C693.547 214.107 696.688 217.198 696.688 221.008Z" fill="#F7C3A4"/>
<path d="M685.391 222.829C685.391 219.823 687.865 217.388 690.921 217.388" stroke="#73325A" stroke-width="6" stroke-miterlimit="10" stroke-linecap="round"/>
<path d="M662.063 214.297C662.669 214.297 663.161 213.179 663.161 211.799C663.161 210.419 662.669 209.301 662.063 209.301C661.457 209.301 660.966 210.419 660.966 211.799C660.966 213.179 661.457 214.297 662.063 214.297Z" fill="#73325A"/>
<path d="M660.385 204.071C660.385 204.071 663.419 203.775 666.539 208.009" stroke="#73325A" stroke-width="6" stroke-miterlimit="10" stroke-linecap="round"/>
<path d="M687.219 214.107H689.673C693.546 214.107 696.688 217.198 696.688 221.009V221.39C696.688 225.201 693.762 228.292 689.888 228.292L688.231 229.435C681.258 233.839 671.617 251.157 673.985 263.415C676.653 277.198 688.855 280.268 700.131 278.15C711.408 276.033 719.629 269.576 716.96 255.772C716.659 254.142 716.164 252.512 715.54 250.903C715.733 250.966 715.906 251.03 716.099 251.093C729.657 254.735 745.582 255.158 749.972 244.742C754.362 234.326 753.372 224.015 740.18 218.637C732.519 215.504 722.103 215.525 714.033 217.685C718.101 203.775 710.87 188.299 697.592 186.753C676.739 184.319 664.774 192.787 664.451 193.02C664.43 195.476 666.13 212.9 687.219 214.107Z" fill="#1D1D1D"/>
<path d="M714.571 217.198C712.871 222.639 709.363 228.461 703.66 232.42C703.66 232.42 713.732 238.962 716.099 251.114" stroke="white" stroke-width="6" stroke-miterlimit="10" stroke-linecap="round" stroke-linejoin="round"/>
<path d="M720.425 216.732H714.723V211.122C714.723 208.179 717.133 205.808 720.124 205.808H720.425C723.417 205.808 725.827 208.179 725.827 211.122V211.418C725.849 214.34 723.417 216.732 720.425 216.732Z" stroke="#3A53F8" stroke-width="6" stroke-miterlimit="10" stroke-linejoin="round"/>
<path d="M718.337 222.491L714.679 216.775L720.489 213.175C723.394 211.376 727.246 212.223 729.075 215.081L729.42 215.61C731.249 218.468 730.388 222.258 727.483 224.058L726.945 224.396C723.997 226.196 720.166 225.349 718.337 222.491Z" stroke="#3A53F8" stroke-width="6" stroke-miterlimit="10" stroke-linejoin="round"/>
<path d="M684.637 232.695L688.704 228.863L692.685 233.288C694.644 235.511 694.386 238.877 692.126 240.783L691.889 240.973C689.63 242.9 686.208 242.646 684.271 240.423L684.078 240.19C682.119 237.988 682.377 234.622 684.637 232.695Z" stroke="#3A53F8" stroke-width="6" stroke-miterlimit="10" stroke-linejoin="round"/>
<path d="M690.576 235.447L688.747 228.948L695.354 227.148C698.668 226.238 702.089 228.143 703.015 231.404L703.187 232.018C704.112 235.278 702.175 238.644 698.861 239.555L698.237 239.724C694.923 240.613 691.502 238.687 690.576 235.447Z" stroke="#3A53F8" stroke-width="6" stroke-miterlimit="10" stroke-linejoin="round"/>
<path d="M631.848 471.086L594.36 643.696" stroke="#3FB1B5" stroke-width="9" stroke-miterlimit="10" stroke-linecap="round"/>
<path d="M727.784 471.086L765.272 643.696" stroke="#3FB1B5" stroke-width="9" stroke-miterlimit="10" stroke-linecap="round"/>
<path d="M602.667 605.376H756.449" stroke="#3FB1B5" stroke-width="9" stroke-miterlimit="10" stroke-linecap="round"/>
<path d="M757.289 471.086H602.323C600.365 471.086 598.772 469.519 598.772 467.592V458.298C598.772 456.371 600.365 454.805 602.323 454.805H757.289C759.247 454.805 760.84 456.371 760.84 458.298V467.592C760.84 469.519 759.247 471.086 757.289 471.086Z" fill="white" stroke="#3FB1B5" stroke-width="6" stroke-miterlimit="10" stroke-linejoin="round"/>
</svg>
