<svg width="72" height="70" viewBox="0 0 72 70" fill="none" xmlns="http://www.w3.org/2000/svg">
<path d="M8.96394 0.0668945H63.2786C67.7077 0.0668945 71.321 3.6801 71.321 8.05092V62.016C71.321 66.4451 67.7077 70 63.2786 70H8.96394C4.53484 70 0.921631 66.3868 0.921631 62.016V8.05092C0.921631 3.6801 4.53484 0.0668945 8.96394 0.0668945Z" fill="#585FCD"/>
<path d="M27.2628 57.0622C24.1158 57.0622 21.2602 56.5377 18.7543 55.547C16.2483 54.498 14.2086 52.9828 12.6934 51.0014C11.2365 49.0199 10.4206 46.5723 10.3623 43.7749H21.6099C21.7847 45.3484 22.3092 46.6305 23.2999 47.4464C24.2324 48.2623 25.5145 48.6703 27.0297 48.6703C28.6032 48.6703 29.827 48.3206 30.7595 47.6213C31.6919 46.8637 32.0998 45.8729 32.0998 44.5908C32.0998 43.5418 31.7502 42.6677 30.9926 41.9683C30.2932 41.269 29.4191 40.6862 28.3118 40.22C27.2628 39.7538 25.8059 39.2293 23.8827 38.7048C21.0854 37.8306 18.8126 36.9565 17.0059 36.1406C15.1993 35.3247 13.6841 33.9843 12.402 32.3525C11.1199 30.6625 10.4789 28.5062 10.4789 25.7672C10.4789 21.746 11.9358 18.599 14.8497 16.3845C17.7636 14.1117 21.6099 12.9461 26.2721 12.9461C31.0508 12.9461 34.8972 14.1117 37.8693 16.3845C40.7832 18.6573 42.3567 21.8043 42.5898 25.8255H31.1091C31.0508 24.4268 30.5263 23.3195 29.5356 22.5619C28.6032 21.746 27.3794 21.3381 25.8641 21.3381C24.582 21.3381 23.533 21.6877 22.7754 22.3871C22.0178 23.0281 21.6099 24.0188 21.6099 25.301C21.6099 26.6996 22.2509 27.8069 23.5913 28.5645C24.9317 29.3221 26.9714 30.1963 29.7687 31.0704C32.5661 32.0029 34.8389 32.9353 36.5872 33.7512C38.3355 34.6254 39.909 35.8492 41.1911 37.481C42.4732 39.1127 43.1143 41.2107 43.1143 43.8332C43.1143 46.2809 42.4732 48.5537 41.1911 50.5351C39.9673 52.5166 38.1607 54.1484 35.7713 55.3139C33.3237 56.4795 30.5263 57.0622 27.2628 57.0622Z" fill="white"/>
<path d="M61.7633 57.0625V27.8072L56.5766 29.9052L51.3899 27.8072V57.0625H56.5766H61.7633Z" fill="white"/>
<path d="M56.5772 24.1356C60.0155 24.1356 62.8129 21.5714 62.8129 18.4244C62.8129 15.2774 60.0155 12.7132 56.5772 12.7132C53.1388 12.7132 50.3415 15.2774 50.3415 18.4244C50.2832 21.5714 53.0805 24.1356 56.5772 24.1356Z" fill="white"/>
</svg>
